<svg width="32" height="32" viewBox="0 0 32 32" fill="none" xmlns="http://www.w3.org/2000/svg">
  <!-- AWS-style cloud infrastructure icon -->
  <rect width="32" height="32" fill="#232F3E"/>
  
  <!-- Cloud shape -->
  <path d="M24.5 18C26.433 18 28 16.433 28 14.5C28 12.567 26.433 11 24.5 11C24.224 11 23.958 11.036 23.705 11.103C23.119 9.27 21.38 8 19.333 8C16.755 8 14.667 10.089 14.667 12.667C14.667 12.956 14.697 13.238 14.754 13.51C14.506 13.478 14.252 13.462 13.995 13.462C11.789 13.462 10 15.251 10 17.457C10 19.663 11.789 21.452 13.995 21.452H24.5C26.433 21.452 28 19.885 28 17.952C28 16.019 26.433 14.452 24.5 14.452Z" fill="#FF9900"/>
  
  <!-- Server/Infrastructure elements -->
  <rect x="5" y="20" width="22" height="2" rx="1" fill="#146EB4"/>
  <rect x="7" y="23" width="18" height="1.5" rx="0.75" fill="#146EB4" opacity="0.8"/>
  <rect x="9" y="25.5" width="14" height="1.5" rx="0.75" fill="#146EB4" opacity="0.6"/>
  
  <!-- DevOps gear icon -->
  <circle cx="22" cy="8" r="2.5" fill="#FF9900"/>
  <path d="M22 6.5L23 7L22 7.5L21 7L22 6.5Z" fill="#232F3E"/>
  <path d="M22 8.5L23 9L22 9.5L21 9L22 8.5Z" fill="#232F3E"/>
  <path d="M20.5 8L21 7L21.5 8L21 9L20.5 8Z" fill="#232F3E"/>
  <path d="M23.5 8L24 7L24.5 8L24 9L23.5 8Z" fill="#232F3E"/>
</svg>